<?xml version="1.0" encoding="UTF-8"?>
<svg width="700pt" height="700pt" version="1.1" viewBox="0 0 700 700" xmlns="http://www.w3.org/2000/svg">
 <path d="m429.77 336.64 79.004 45.613c-3.0664 11.039-0.53516 22.879 6.7734 31.703 7.3125 8.8203 18.477 13.504 29.895 12.539 11.414-0.96094 21.637-7.4531 27.367-17.375 5.7266-9.9219 6.2383-22.02 1.3633-32.387-4.875-10.371-14.512-17.695-25.809-19.617-11.293-1.9219-22.812 1.8086-30.84 9.9844l-79.004-45.613c10.301-22.863 10.301-49.047 0-71.906l36.449-21.043h-0.003906c8.0273 8.1719 19.547 11.902 30.844 9.9805 11.293-1.9219 20.934-9.2461 25.809-19.617 4.8711-10.367 4.3633-22.465-1.3672-32.387-5.7266-9.9219-15.949-16.41-27.363-17.375-11.418-0.96484-22.582 3.7188-29.895 12.539-7.3125 8.8242-9.8398 20.664-6.7773 31.703l-36.449 21.043h0.003907c-14.648-20.355-37.324-33.445-62.273-35.953v-89.051c11.094-2.8633 20.082-10.977 24.066-21.719 3.9844-10.742 2.457-22.754-4.0859-32.156-6.543-9.4062-17.273-15.012-28.73-15.012s-22.188 5.6055-28.73 15.012c-6.543 9.4023-8.0703 21.414-4.0859 32.156 3.9844 10.742 12.973 18.855 24.066 21.719v89.051c-24.949 2.5078-47.625 15.598-62.273 35.953l-42.492-24.531v-0.003907c3.0664-11.039 0.53516-22.879-6.7734-31.699-7.3125-8.8203-18.477-13.508-29.891-12.543-11.418 0.96484-21.641 7.4531-27.367 17.375-5.7305 9.9219-6.2422 22.02-1.3672 32.387 4.8711 10.371 14.512 17.695 25.805 19.617 11.297 1.9219 22.816-1.8047 30.844-9.9805l42.492 24.535c-10.305 22.859-10.305 49.043 0 71.906l-96.504 55.715c-8.0273-8.1758-19.547-11.902-30.84-9.9805-11.297 1.918-20.934 9.2461-25.809 19.617-4.875 10.367-4.3633 22.465 1.3672 32.387 5.7266 9.9219 15.949 16.41 27.363 17.375 11.418 0.96484 22.582-3.7227 29.895-12.543 7.3086-8.8203 9.8398-20.66 6.7734-31.699l96.504-55.715v-0.003907c14.648 20.355 37.324 33.445 62.273 35.953v77.973c-11.094 2.8672-20.082 10.977-24.066 21.719-3.9844 10.742-2.457 22.754 4.0859 32.16 6.543 9.4023 17.273 15.012 28.73 15.012s22.188-5.6094 28.73-15.012c6.543-9.4062 8.0703-21.418 4.0859-32.16-3.9844-10.742-12.973-18.852-24.066-21.719v-77.973c24.949-2.5078 47.625-15.598 62.273-35.953z"/>
</svg>
